<svg width="20" height="20" viewBox="0 0 20 20" fill="none" xmlns="http://www.w3.org/2000/svg">
<path fill-rule="evenodd" clip-rule="evenodd" d="M14.3345 0.000183105H5.66549C2.26791 0.000183105 0.000488281 2.43278 0.000488281 5.91618V14.0842C0.000488281 17.5709 2.26186 20.0002 5.66549 20.0002H14.3335C17.7381 20.0002 20.0005 17.5709 20.0005 14.0842V5.91618C20.0005 2.42969 17.7383 0.000183105 14.3345 0.000183105ZM5.66549 1.50018H14.3345C16.885 1.50018 18.5005 3.23515 18.5005 5.91618V14.0842C18.5005 16.7653 16.8849 18.5002 14.3335 18.5002H5.66549C3.11525 18.5002 1.50049 16.7655 1.50049 14.0842V5.91618C1.50049 3.23856 3.12083 1.50018 5.66549 1.50018ZM7.07071 7.0624C7.33701 6.79616 7.75367 6.772 8.04726 6.98988L8.13137 7.06251L9.99909 8.93062L11.8652 7.06455C12.1581 6.77166 12.6329 6.77166 12.9258 7.06455C13.1921 7.33082 13.2163 7.74748 12.9984 8.04109L12.9258 8.12521L11.0596 9.99139L12.9274 11.8595C13.2202 12.1524 13.2202 12.6273 12.9273 12.9202C12.661 13.1864 12.2443 13.2106 11.9507 12.9927L11.8666 12.9201L9.99898 11.052L8.13382 12.9172C7.84093 13.2101 7.36605 13.2101 7.07316 12.9172C6.80689 12.6509 6.78269 12.2343 7.00054 11.9407L7.07316 11.8566L8.93843 9.99128L7.0706 8.12306C6.77774 7.83013 6.77779 7.35526 7.07071 7.0624Z" fill="#2F80ED"/>
</svg>
