<svg width="7" height="9" viewBox="0 0 7 9" fill="none" xmlns="http://www.w3.org/2000/svg">
<path fill-rule="evenodd" clip-rule="evenodd" d="M6.05011 5.46689C5.32111 6.25289 3.33711 7.58289 2.32211 8.00989C2.16011 8.07789 1.74711 8.22189 1.65811 8.22389C1.46911 8.22989 1.28711 8.12389 1.19911 7.95389C1.16511 7.88789 1.06511 7.45689 1.03311 7.26489C0.938106 6.68089 0.889106 5.77389 0.890106 4.86189C0.889106 3.90489 0.942106 2.95489 1.04811 2.37689C1.07611 2.22089 1.15811 1.86189 1.18211 1.80389C1.22711 1.69589 1.30911 1.61089 1.40811 1.55789C1.48411 1.51689 1.57111 1.49489 1.65811 1.49789C1.74711 1.49989 2.10911 1.62689 2.23311 1.67589C3.21111 2.05589 5.28011 3.43389 6.04011 4.24389C6.10811 4.31689 6.29511 4.51289 6.32611 4.55289C6.39711 4.64289 6.43211 4.75189 6.43211 4.86189C6.43211 4.96389 6.40111 5.06789 6.33711 5.15489C6.30411 5.19989 6.11311 5.39989 6.05011 5.46689Z" stroke="white" stroke-linecap="round" stroke-linejoin="round"/>
</svg>
